<svg data-v-423bf9ae="" xmlns="http://www.w3.org/2000/svg" viewBox="0 0 85.05814271551746 60" class="font"><!----><!----><defs data-v-423bf9ae=""><linearGradient data-v-423bf9ae="" gradientTransform="rotate(25)" id="1d212403-34ed-475a-8430-095e59fe716d" x1="0%" y1="0%" x2="100%" y2="0%"><stop data-v-423bf9ae="" offset="0%" style="stop-color: rgb(233, 13, 202); stop-opacity: 1;"></stop><stop data-v-423bf9ae="" offset="100%" style="stop-color: rgb(21, 54, 241); stop-opacity: 1;"></stop></linearGradient></defs><g data-v-423bf9ae="" id="f22deb8a-6bf1-40f4-8972-3e9c41667d25" fill="url(#1d212403-34ed-475a-8430-095e59fe716d)" transform="matrix(5.813953660298242,0,0,5.813953660298242,0.0000018806140715810216,-17.267441822168593)"><path d="M5.32 2.97L6.48 2.97L6.48 13.29L5.99 13.29L5.99 3.47L5.70 3.47L3.25 12.03L0.78 3.47L0.49 3.47L0.49 13.29L0 13.29L0 2.97L1.16 2.97L3.25 10.23ZM1.32 13.29L0.83 13.29L0.83 4.80L3.25 13.23L5.66 4.80L5.66 13.29L5.17 13.29L5.17 8.34L3.74 13.29L2.74 13.29L1.32 8.34ZM8.85 13.29L7.53 13.29L7.53 11.80L8.85 11.80ZM8.02 12.31L8.02 12.80L8.36 12.80L8.36 12.31ZM10.14 2.97L10.63 2.97L10.63 12.80L14.63 12.80L14.63 13.29L10.14 13.29ZM14.63 12.46L10.96 12.46L10.96 2.97L11.45 2.97L11.45 11.97L14.63 11.97Z"></path></g><!----><!----></svg>